<svg width="100" height="104" viewBox="0 0 100 104" fill="none" xmlns="http://www.w3.org/2000/svg">
<rect y="0.598145" width="100" height="103" rx="50" fill="#E4E4E6"/>
<path d="M61 37.6357C61 43.7109 56.0751 48.6357 50 48.6357C43.9249 48.6357 39 43.7109 39 37.6357C39 31.5606 43.9249 26.6357 50 26.6357C56.0751 26.6357 61 31.5606 61 37.6357Z" fill="#767680"/>
<path d="M40.0842 57.1431C41.4381 56.7563 42.8393 56.5601 44.2474 56.5601H55.037C56.9167 56.5601 58.7841 56.8631 60.5674 57.4575L62.3296 58.0449C64.5568 58.7873 66.5047 60.1913 67.9133 62.0694C69.0773 63.6215 69.8313 65.4418 70.1057 67.3624L70.5693 70.6077C70.8404 72.5056 70.2022 74.4204 68.8465 75.776C67.7042 76.9183 66.155 77.5601 64.5395 77.5601H36.574C35.0655 77.5601 33.5976 77.0708 32.3908 76.1656C30.3076 74.6033 29.2687 72.0103 29.6968 69.4418L30.1144 66.9364C30.2461 66.1462 30.4626 65.3724 30.7601 64.6285L30.7866 64.5624C32.1433 61.1705 34.9936 58.5976 38.5063 57.594L40.0842 57.1431Z" fill="#767680"/>
</svg>
