<svg width="37" height="36" viewBox="0 0 37 36" fill="none" xmlns="http://www.w3.org/2000/svg">
<path fill-rule="evenodd" clip-rule="evenodd" d="M22.9926 3.40111H12.4751C9.18692 3.38851 6.49155 6.00958 6.41409 9.29619V26.232C6.34137 29.5723 8.98932 32.3404 12.3297 32.4147C12.3787 32.4147 12.4261 32.4163 12.4751 32.4147H25.1046C28.415 32.2804 31.0234 29.5455 30.9998 26.232V11.7418L22.9926 3.40111Z" fill="black" stroke="white" stroke-width="2" stroke-linecap="round" stroke-linejoin="round"/>
<path fill-rule="evenodd" clip-rule="evenodd" d="M22.5773 3.38245V7.98118C22.5773 10.226 24.3921 12.0456 26.637 12.0519H30.9922" fill="black"/>
<path d="M22.5773 3.38245V7.98118C22.5773 10.226 24.3921 12.0456 26.637 12.0519H30.9922" stroke="white" stroke-width="2" stroke-linecap="round" stroke-linejoin="round"/>
<path d="M22.2817 23.3147H13.745" stroke="white" stroke-width="2" stroke-linecap="round" stroke-linejoin="round"/>
<path d="M19.049 17.3826H13.7436" stroke="white" stroke-width="2" stroke-linecap="round" stroke-linejoin="round"/>
</svg>
