<svg width="137" height="18" viewBox="0 0 137 18" fill="none" xmlns="http://www.w3.org/2000/svg">
<path d="M15.5 6.3H7.1V8.1H15.2V13.2H7.1V17.4H0.4V0.599999H15.5V6.3ZM17.2031 5.34C19.3631 4.48 22.6631 4 24.8831 4C28.7431 4 30.6031 5.1 30.6031 8.4V17.4H25.1031V12.72H24.6031C23.1231 12.72 22.0831 12.84 22.0831 13.54C22.0831 14.14 22.9431 14.26 24.2031 14.26H24.4031L24.9031 17.3C24.1231 17.6 22.6831 17.8 21.3431 17.8C17.8231 17.8 16.1031 16.38 16.1031 14.04C16.1031 11.4 18.6431 9.42 23.3231 9.42H25.1031V9.38C25.1031 8.46 25.0031 8.34 23.9031 8.34C21.9631 8.34 19.3031 8.88 17.6031 9.38L17.2031 5.34ZM31.7031 17.4V0.599999H37.2031V8.76L40.3031 4.4H46.6031L41.6031 10.94L47.0031 17.4H40.5031L37.2031 13.28V17.4H31.7031ZM51.7047 11.98C51.7047 12.76 52.6247 13.22 54.0047 13.22C55.5447 13.22 56.9047 13.04 59.6047 12.38L60.6047 16.04C58.8447 17.24 56.6047 17.8 53.7047 17.8C48.7847 17.8 45.9047 15.24 45.9047 10.88C45.9047 6.74 49.0047 4 53.7047 4C58.5447 4 61.1047 6.4 61.1047 10.92V11.98H51.7047ZM51.7647 9.54H55.8447C55.8447 8.8 54.9047 8.3 53.8047 8.3C52.7047 8.3 51.7647 8.8 51.7647 9.54Z" fill="#006FCC"/>
<path d="M72.807 17.4H66.007V6.6H61.207V0.599999H77.607V6.6H72.807V17.4ZM78.5992 7.6V4.4H84.0992V8L78.5992 7.6ZM78.5992 17.4V8.4H84.0992V17.4H78.5992ZM85.2078 17.4V4.4H90.7078V17.4H85.2078ZM90.9078 5.34C91.9278 4.58 93.7478 4 95.1478 4C96.6878 4 97.7078 4.42 98.3278 5.32C99.5478 4.58 101.068 4 102.848 4C105.708 4 106.808 5.42 106.808 8.84V17.4H101.308V10.06C101.308 9.38 101.128 9.16 100.588 9.16C100.128 9.16 99.6478 9.26 99.1078 9.52V17.4H93.6078V10.06C93.6078 9.38 93.4278 9.16 92.8878 9.16C92.5278 9.16 92.0878 9.32 91.3078 9.74L90.9078 5.34ZM113.51 11.98C113.51 12.76 114.43 13.22 115.81 13.22C117.35 13.22 118.71 13.04 121.41 12.38L122.41 16.04C120.65 17.24 118.41 17.8 115.51 17.8C110.59 17.8 107.71 15.24 107.71 10.88C107.71 6.74 110.81 4 115.51 4C120.35 4 122.91 6.4 122.91 10.92V11.98H113.51ZM113.57 9.54H117.65C117.65 8.8 116.71 8.3 115.61 8.3C114.51 8.3 113.57 8.8 113.57 9.54ZM124.213 12.42C126.413 13.12 128.173 13.42 129.893 13.42C131.153 13.42 131.433 13.32 131.433 13.02C131.433 12.72 131.113 12.62 130.133 12.62C125.653 12.62 123.713 11.26 123.713 8.36C123.713 5.48 126.033 4 130.593 4C132.593 4 134.613 4.36 136.373 4.94L135.973 9.1C133.833 8.54 132.273 8.3 130.613 8.3C129.533 8.3 129.113 8.4 129.113 8.7C129.113 9 129.473 9.1 130.313 9.1C135.113 9.1 136.813 10.44 136.813 13.34C136.813 16.32 134.833 17.8 130.833 17.8C128.233 17.8 125.793 17.42 123.813 16.7L124.213 12.42Z" fill="black"/>
</svg>
