<svg width="134" height="79" viewBox="0 0 134 79" fill="none" xmlns="http://www.w3.org/2000/svg">
<rect x="18.9174" y="1.38416" width="25" height="25" rx="12.5" fill="#008BFF"/>
<path d="M66.9174 17.2283C66.9174 15.5252 67.7843 13.9392 69.2179 13.0197L86.2179 2.11565C87.8629 1.06052 89.9718 1.06052 91.6168 2.11564L108.617 13.0197C110.05 13.9392 110.917 15.5252 110.917 17.2283V21.8105C110.917 23.7873 108.732 24.9821 107.068 23.9149L91.6168 14.0045C89.9718 12.9494 87.8629 12.9494 86.2179 14.0045L70.7671 23.9149C69.1032 24.9821 66.9174 23.7873 66.9174 21.8106V17.2283Z" fill="#008BFF"/>
<path d="M121.417 59.3841C93.2212 82.4537 43.4885 75.1046 14.0124 64.7828C9.55835 63.2232 10.1454 57.3631 14.7654 56.4006C71.3857 44.6051 154.868 32.0158 121.417 59.3841Z" stroke="#008BFF" stroke-width="8"/>
</svg>
